<svg xmlns="http://www.w3.org/2000/svg" viewBox="0 0 24 24" fill="#181717" width="24" height="24">
  <path d="M12 0C5.372 0 0 5.372 0 12c0 5.303 3.438 9.8 8.205 11.387.6.111.82-.261.82-.58 0-.287-.011-1.244-.017-2.447-3.338.726-4.042-1.61-4.042-1.61-.546-1.387-1.333-1.757-1.333-1.757-1.089-.745.083-.73.083-.73 1.205.084 1.84 1.237 1.84 1.237 1.07 1.834 2.807 1.304 3.492.997.108-.775.418-1.305.762-1.605-2.665-.303-5.466-1.332-5.466-5.93 0-1.31.469-2.381 1.236-3.221-.124-.303-.536-1.523.117-3.176 0 0 1.008-.322 3.301 1.23a11.49 11.49 0 013.003-.404c1.019.005 2.047.138 3.003.404 2.291-1.552 3.297-1.23 3.297-1.23.655 1.653.243 2.873.12 3.176.77.84 1.236 1.911 1.236 3.22 0 4.61-2.805 5.625-5.476 5.921.43.371.814 1.104.814 2.228 0 1.607-.015 2.9-.015 3.293 0 .322.216.697.825.578C20.565 21.796 24 17.303 24 12c0-6.628-5.372-12-12-12z"></path>
</svg>
